<mxfile host="Electron" modified="2023-11-19T08:36:40.203Z" agent="Mozilla/5.0 (Windows NT 10.0; Win64; x64) AppleWebKit/537.36 (KHTML, like Gecko) draw.io/22.1.2 Chrome/114.0.5735.289 Electron/25.9.4 Safari/537.36" etag="DU3V-bBeU7puUYfPx-nq" version="22.1.2" type="device">
  <diagram name="Page-1" id="H_pzuCV20Pm-qW0fD0AY">
    <mxGraphModel dx="1750" dy="1063" grid="1" gridSize="10" guides="1" tooltips="1" connect="1" arrows="1" fold="1" page="1" pageScale="1" pageWidth="1169" pageHeight="827" math="0" shadow="0">
      <root>
        <mxCell id="0" />
        <mxCell id="1" parent="0" />
        <mxCell id="ZnHIv8W6bLYNhykJCkA3-38" value="" style="group" vertex="1" connectable="0" parent="1">
          <mxGeometry x="220" y="80" width="760" height="500" as="geometry" />
        </mxCell>
        <mxCell id="ZnHIv8W6bLYNhykJCkA3-1" value="User" style="shape=umlActor;verticalLabelPosition=bottom;verticalAlign=top;html=1;" vertex="1" parent="ZnHIv8W6bLYNhykJCkA3-38">
          <mxGeometry y="200.5" width="30" height="60" as="geometry" />
        </mxCell>
        <mxCell id="ZnHIv8W6bLYNhykJCkA3-2" value="Use Case Diagram for E-Commerce Website" style="rounded=0;whiteSpace=wrap;html=1;labelPosition=center;verticalLabelPosition=middle;align=center;verticalAlign=top;fontSize=22;fillColor=none;" vertex="1" parent="ZnHIv8W6bLYNhykJCkA3-38">
          <mxGeometry x="100" width="520" height="500" as="geometry" />
        </mxCell>
        <mxCell id="ZnHIv8W6bLYNhykJCkA3-3" value="Login" style="ellipse;whiteSpace=wrap;html=1;" vertex="1" parent="ZnHIv8W6bLYNhykJCkA3-38">
          <mxGeometry x="280" y="50" width="140" height="30" as="geometry" />
        </mxCell>
        <mxCell id="ZnHIv8W6bLYNhykJCkA3-4" style="rounded=0;orthogonalLoop=1;jettySize=auto;html=1;entryX=0;entryY=0.5;entryDx=0;entryDy=0;exitX=1;exitY=0.3333333333333333;exitDx=0;exitDy=0;exitPerimeter=0;" edge="1" parent="ZnHIv8W6bLYNhykJCkA3-38" source="ZnHIv8W6bLYNhykJCkA3-1" target="ZnHIv8W6bLYNhykJCkA3-3">
          <mxGeometry relative="1" as="geometry" />
        </mxCell>
        <mxCell id="ZnHIv8W6bLYNhykJCkA3-10" value="Add Product of cart" style="ellipse;whiteSpace=wrap;html=1;" vertex="1" parent="ZnHIv8W6bLYNhykJCkA3-38">
          <mxGeometry x="190" y="154" width="140" height="33" as="geometry" />
        </mxCell>
        <mxCell id="ZnHIv8W6bLYNhykJCkA3-11" style="rounded=0;orthogonalLoop=1;jettySize=auto;html=1;entryX=0;entryY=0.5;entryDx=0;entryDy=0;exitX=1;exitY=0.3333333333333333;exitDx=0;exitDy=0;exitPerimeter=0;" edge="1" parent="ZnHIv8W6bLYNhykJCkA3-38" source="ZnHIv8W6bLYNhykJCkA3-1" target="ZnHIv8W6bLYNhykJCkA3-10">
          <mxGeometry relative="1" as="geometry" />
        </mxCell>
        <mxCell id="ZnHIv8W6bLYNhykJCkA3-12" value="update cart" style="ellipse;whiteSpace=wrap;html=1;" vertex="1" parent="ZnHIv8W6bLYNhykJCkA3-38">
          <mxGeometry x="190" y="200.5" width="140" height="33" as="geometry" />
        </mxCell>
        <mxCell id="ZnHIv8W6bLYNhykJCkA3-17" style="rounded=0;orthogonalLoop=1;jettySize=auto;html=1;entryX=0;entryY=0.5;entryDx=0;entryDy=0;exitX=1;exitY=0.3333333333333333;exitDx=0;exitDy=0;exitPerimeter=0;" edge="1" parent="ZnHIv8W6bLYNhykJCkA3-38" source="ZnHIv8W6bLYNhykJCkA3-1" target="ZnHIv8W6bLYNhykJCkA3-12">
          <mxGeometry relative="1" as="geometry" />
        </mxCell>
        <mxCell id="ZnHIv8W6bLYNhykJCkA3-13" value="Place Order" style="ellipse;whiteSpace=wrap;html=1;" vertex="1" parent="ZnHIv8W6bLYNhykJCkA3-38">
          <mxGeometry x="190" y="251" width="140" height="33" as="geometry" />
        </mxCell>
        <mxCell id="ZnHIv8W6bLYNhykJCkA3-18" style="rounded=0;orthogonalLoop=1;jettySize=auto;html=1;exitX=1;exitY=0.3333333333333333;exitDx=0;exitDy=0;exitPerimeter=0;entryX=0;entryY=0.5;entryDx=0;entryDy=0;" edge="1" parent="ZnHIv8W6bLYNhykJCkA3-38" source="ZnHIv8W6bLYNhykJCkA3-1" target="ZnHIv8W6bLYNhykJCkA3-13">
          <mxGeometry relative="1" as="geometry" />
        </mxCell>
        <mxCell id="ZnHIv8W6bLYNhykJCkA3-14" value="Payment" style="ellipse;whiteSpace=wrap;html=1;" vertex="1" parent="ZnHIv8W6bLYNhykJCkA3-38">
          <mxGeometry x="190" y="301" width="140" height="33" as="geometry" />
        </mxCell>
        <mxCell id="ZnHIv8W6bLYNhykJCkA3-19" style="rounded=0;orthogonalLoop=1;jettySize=auto;html=1;exitX=1;exitY=0.3333333333333333;exitDx=0;exitDy=0;exitPerimeter=0;entryX=0;entryY=0;entryDx=0;entryDy=0;" edge="1" parent="ZnHIv8W6bLYNhykJCkA3-38" source="ZnHIv8W6bLYNhykJCkA3-1" target="ZnHIv8W6bLYNhykJCkA3-14">
          <mxGeometry relative="1" as="geometry" />
        </mxCell>
        <mxCell id="ZnHIv8W6bLYNhykJCkA3-16" style="rounded=0;orthogonalLoop=1;jettySize=auto;html=1;exitX=1;exitY=0.3333333333333333;exitDx=0;exitDy=0;exitPerimeter=0;" edge="1" parent="ZnHIv8W6bLYNhykJCkA3-38" source="ZnHIv8W6bLYNhykJCkA3-15" target="ZnHIv8W6bLYNhykJCkA3-14">
          <mxGeometry relative="1" as="geometry" />
        </mxCell>
        <mxCell id="ZnHIv8W6bLYNhykJCkA3-15" value="Khalti/Esewa" style="shape=umlActor;verticalLabelPosition=bottom;verticalAlign=top;html=1;" vertex="1" parent="ZnHIv8W6bLYNhykJCkA3-38">
          <mxGeometry y="300" width="30" height="60" as="geometry" />
        </mxCell>
        <mxCell id="ZnHIv8W6bLYNhykJCkA3-20" value="Logout" style="ellipse;whiteSpace=wrap;html=1;" vertex="1" parent="ZnHIv8W6bLYNhykJCkA3-38">
          <mxGeometry x="280" y="440" width="140" height="30" as="geometry" />
        </mxCell>
        <mxCell id="ZnHIv8W6bLYNhykJCkA3-22" style="rounded=0;orthogonalLoop=1;jettySize=auto;html=1;exitX=1;exitY=1;exitDx=0;exitDy=0;exitPerimeter=0;entryX=0;entryY=0.5;entryDx=0;entryDy=0;" edge="1" parent="ZnHIv8W6bLYNhykJCkA3-38" source="ZnHIv8W6bLYNhykJCkA3-1" target="ZnHIv8W6bLYNhykJCkA3-20">
          <mxGeometry relative="1" as="geometry" />
        </mxCell>
        <mxCell id="ZnHIv8W6bLYNhykJCkA3-24" style="rounded=0;orthogonalLoop=1;jettySize=auto;html=1;entryX=1;entryY=0.5;entryDx=0;entryDy=0;exitX=0;exitY=0.3333333333333333;exitDx=0;exitDy=0;exitPerimeter=0;" edge="1" parent="ZnHIv8W6bLYNhykJCkA3-38" source="ZnHIv8W6bLYNhykJCkA3-23" target="ZnHIv8W6bLYNhykJCkA3-3">
          <mxGeometry relative="1" as="geometry">
            <mxPoint x="750" y="160" as="sourcePoint" />
          </mxGeometry>
        </mxCell>
        <mxCell id="ZnHIv8W6bLYNhykJCkA3-37" style="rounded=0;orthogonalLoop=1;jettySize=auto;html=1;exitX=0;exitY=0.3333333333333333;exitDx=0;exitDy=0;exitPerimeter=0;entryX=1;entryY=0.5;entryDx=0;entryDy=0;" edge="1" parent="ZnHIv8W6bLYNhykJCkA3-38" source="ZnHIv8W6bLYNhykJCkA3-23" target="ZnHIv8W6bLYNhykJCkA3-20">
          <mxGeometry relative="1" as="geometry" />
        </mxCell>
        <mxCell id="ZnHIv8W6bLYNhykJCkA3-23" value="Seller" style="shape=umlActor;verticalLabelPosition=bottom;verticalAlign=top;html=1;" vertex="1" parent="ZnHIv8W6bLYNhykJCkA3-38">
          <mxGeometry x="730" y="200.5" width="30" height="60" as="geometry" />
        </mxCell>
        <mxCell id="ZnHIv8W6bLYNhykJCkA3-25" value="Add/Update Products" style="ellipse;whiteSpace=wrap;html=1;" vertex="1" parent="ZnHIv8W6bLYNhykJCkA3-38">
          <mxGeometry x="410" y="154" width="140" height="33" as="geometry" />
        </mxCell>
        <mxCell id="ZnHIv8W6bLYNhykJCkA3-26" style="rounded=0;orthogonalLoop=1;jettySize=auto;html=1;exitX=0;exitY=0.3333333333333333;exitDx=0;exitDy=0;exitPerimeter=0;entryX=1;entryY=0.5;entryDx=0;entryDy=0;" edge="1" parent="ZnHIv8W6bLYNhykJCkA3-38" source="ZnHIv8W6bLYNhykJCkA3-23" target="ZnHIv8W6bLYNhykJCkA3-25">
          <mxGeometry relative="1" as="geometry" />
        </mxCell>
        <mxCell id="ZnHIv8W6bLYNhykJCkA3-27" value="Manage Categories" style="ellipse;whiteSpace=wrap;html=1;" vertex="1" parent="ZnHIv8W6bLYNhykJCkA3-38">
          <mxGeometry x="410" y="200.5" width="140" height="33" as="geometry" />
        </mxCell>
        <mxCell id="ZnHIv8W6bLYNhykJCkA3-28" style="rounded=0;orthogonalLoop=1;jettySize=auto;html=1;exitX=0;exitY=0.3333333333333333;exitDx=0;exitDy=0;exitPerimeter=0;entryX=1;entryY=0.5;entryDx=0;entryDy=0;" edge="1" parent="ZnHIv8W6bLYNhykJCkA3-38" source="ZnHIv8W6bLYNhykJCkA3-23" target="ZnHIv8W6bLYNhykJCkA3-27">
          <mxGeometry relative="1" as="geometry" />
        </mxCell>
        <mxCell id="ZnHIv8W6bLYNhykJCkA3-29" value="Manage Orders" style="ellipse;whiteSpace=wrap;html=1;" vertex="1" parent="ZnHIv8W6bLYNhykJCkA3-38">
          <mxGeometry x="410" y="251" width="140" height="33" as="geometry" />
        </mxCell>
        <mxCell id="ZnHIv8W6bLYNhykJCkA3-30" style="rounded=0;orthogonalLoop=1;jettySize=auto;html=1;exitX=0;exitY=0.3333333333333333;exitDx=0;exitDy=0;exitPerimeter=0;entryX=1;entryY=0.5;entryDx=0;entryDy=0;" edge="1" parent="ZnHIv8W6bLYNhykJCkA3-38" source="ZnHIv8W6bLYNhykJCkA3-23" target="ZnHIv8W6bLYNhykJCkA3-29">
          <mxGeometry relative="1" as="geometry" />
        </mxCell>
        <mxCell id="ZnHIv8W6bLYNhykJCkA3-31" value="Track Order" style="ellipse;whiteSpace=wrap;html=1;" vertex="1" parent="ZnHIv8W6bLYNhykJCkA3-38">
          <mxGeometry x="190" y="350" width="140" height="33" as="geometry" />
        </mxCell>
        <mxCell id="ZnHIv8W6bLYNhykJCkA3-32" style="rounded=0;orthogonalLoop=1;jettySize=auto;html=1;exitX=1;exitY=0.3333333333333333;exitDx=0;exitDy=0;exitPerimeter=0;entryX=0;entryY=0.5;entryDx=0;entryDy=0;" edge="1" parent="ZnHIv8W6bLYNhykJCkA3-38" source="ZnHIv8W6bLYNhykJCkA3-1" target="ZnHIv8W6bLYNhykJCkA3-31">
          <mxGeometry relative="1" as="geometry" />
        </mxCell>
        <mxCell id="ZnHIv8W6bLYNhykJCkA3-34" value="Warehouse" style="ellipse;whiteSpace=wrap;html=1;" vertex="1" parent="ZnHIv8W6bLYNhykJCkA3-38">
          <mxGeometry x="410" y="301" width="140" height="33" as="geometry" />
        </mxCell>
        <mxCell id="ZnHIv8W6bLYNhykJCkA3-35" style="rounded=0;orthogonalLoop=1;jettySize=auto;html=1;exitX=0;exitY=0.3333333333333333;exitDx=0;exitDy=0;exitPerimeter=0;entryX=1;entryY=0.5;entryDx=0;entryDy=0;" edge="1" parent="ZnHIv8W6bLYNhykJCkA3-38" source="ZnHIv8W6bLYNhykJCkA3-23" target="ZnHIv8W6bLYNhykJCkA3-34">
          <mxGeometry relative="1" as="geometry" />
        </mxCell>
      </root>
    </mxGraphModel>
  </diagram>
</mxfile>
